<svg id="Layer_1" data-name="Layer 1" xmlns="http://www.w3.org/2000/svg" xmlns:xlink="http://www.w3.org/1999/xlink" width="94.855" height="40" viewBox="0 0 303.14 131.12"><defs><linearGradient id="linear-gradient" x1="-507.43" y1="442.01" x2="-506.43" y2="442.01" gradientTransform="matrix(23.48, 0, 0, -37.32, 11954.19, 16609.03)" gradientUnits="userSpaceOnUse"><stop offset="0" stop-color="#2057ff"/><stop offset="1" stop-color="#00b0ff"/></linearGradient><linearGradient id="linear-gradient-2" x1="-506.43" y1="442.01" x2="-507.43" y2="442.01" gradientTransform="matrix(23.48, 0, 0, -37.34, 11927.66, 16524.25)" gradientUnits="userSpaceOnUse"><stop offset="0" stop-color="#b500ac"/><stop offset="1" stop-color="#ff00e5"/></linearGradient></defs><g id="Group_51" data-name="Group 51"><g id="Group_24" data-name="Group 24"><path id="Path_25" data-name="Path 25" d="M99.88,90.1v-49a3.72,3.72,0,0,1,3.65-3.74h7.15a3.52,3.52,0,0,1,2.61,1.08,3.77,3.77,0,0,1,1,2.64v49a3.51,3.51,0,0,1-1.1,2.62,3.63,3.63,0,0,1-2.59,1.08h-7.13a3.56,3.56,0,0,1-2.56-1A3.42,3.42,0,0,1,99.88,90.1Z" transform="translate(0 0)" style="fill:#0d0736"/><path id="Path_26" data-name="Path 26" d="M125.37,90.08v-49a3.81,3.81,0,0,1,1-2.64,3.41,3.41,0,0,1,2.55-1.1h29.3q23.25,0,23.22,22t-23.22,22h-18.4V90.1a3.56,3.56,0,0,1-1.06,2.62,3.45,3.45,0,0,1-2.55,1.08H129a3.68,3.68,0,0,1-3.66-3.7v0Zm14.48-20h14a17.67,17.67,0,0,0,9.8-2.23c2.23-1.47,3.32-4.33,3.32-8.58s-1.1-7.11-3.32-8.58a17.75,17.75,0,0,0-9.8-2.23h-14Z" transform="translate(0 0)" style="fill:#0d0736"/><path id="Path_27" data-name="Path 27" d="M184.45,93.75A2,2,0,0,1,182.29,92a3.31,3.31,0,0,1,.8-1.92l19.37-25.34L184.21,41a3.12,3.12,0,0,1-.8-1.92c0-1.2.7-1.82,2.11-1.82h8.25A8.42,8.42,0,0,1,200.5,41L211,54.79l10.51-13.7a8.38,8.38,0,0,1,6.73-3.74h8.25c1.42,0,2.11.61,2.11,1.81a3.3,3.3,0,0,1-.8,1.93L219.58,64.8l19.36,25.34a3,3,0,0,1,.8,1.65,2.1,2.1,0,0,1-.14.9,2,2,0,0,1-2,1.15h-8.16a8.37,8.37,0,0,1-6.7-3.7L211,74.81,199.33,90.14a8.36,8.36,0,0,1-6.69,3.7Z" transform="translate(0 0)" style="fill:#0d0736"/><path id="Path_28" data-name="Path 28" d="M295.29,88q-7.86,7.05-23,7.06T249.2,88q-8-7.08-8-22.48t8-22.37q7.85-7,23.05-7t23,7q7.88,7.05,7.85,22.37T295.29,88ZM284.79,51.5q-4-4.72-12.55-4.72T259.69,51.5q-4,4.72-4,14.08c0,6.25,1.3,10.92,4,14.07s6.78,4.7,12.55,4.7,10-1.57,12.55-4.7,3.88-7.82,3.88-14.07-1.29-10.93-3.88-14.08Z" transform="translate(0 0)" style="fill:#0d0736"/></g><g id="Group_25" data-name="Group 25"><path id="Path_29" data-name="Path 29" d="M44.9,123.64l7.23,7.48,7.15-7.3a10.85,10.85,0,0,0,0-15.07v0L44.75,93.8A21.61,21.61,0,0,0,44.9,123.64Z" transform="translate(0 0)" style="fill:url(#linear-gradient)"/><path id="Path_30" data-name="Path 30" d="M30.27,108.63l14.63,15a21.61,21.61,0,0,1-.15-29.84l.15-.17L61.2,76.9,72.36,65.47a10.87,10.87,0,0,0,0-15.09l-7.28-7.46L46.26,62.23l-16,16.45A21.61,21.61,0,0,0,30.27,108.63Z" transform="translate(0 0)" style="fill:#00b0ff"/></g><g id="Group_26" data-name="Group 26"><path id="Path_31" data-name="Path 31" d="M30.51,7.5,23.3,0,16.13,7.32a10.85,10.85,0,0,0,0,15.07v0L30.66,37.34A21.62,21.62,0,0,0,30.51,7.5Z" transform="translate(0 0)" style="fill:url(#linear-gradient-2)"/><path id="Path_32" data-name="Path 32" d="M45.14,22.5,30.51,7.5a21.61,21.61,0,0,1,.15,29.84l-.15.17L14.21,54.23,3.05,65.66A10.87,10.87,0,0,0,3,80.75l7.29,7.46,18.82-19.3,16-16.45A21.61,21.61,0,0,0,45.14,22.5Z" transform="translate(0 0)" style="fill:#ff00e5"/></g></g></svg>
